# Blender 4.2.0
# www.blender.org
mtllib craftingTable.mtl
o Cube
v 0.500000 0.500000 -0.500000
v 0.500000 -0.500000 -0.500000
v 0.500000 0.500000 0.500000
v 0.500000 -0.500000 0.500000
v -0.500000 0.500000 -0.500000
v -0.500000 -0.500000 -0.500000
v -0.500000 0.500000 0.500000
v -0.500000 -0.500000 0.500000
vn -0.0000 1.0000 -0.0000
vn -0.0000 -0.0000 1.0000
vn -1.0000 -0.0000 -0.0000
vn -0.0000 -1.0000 -0.0000
vn 1.0000 -0.0000 -0.0000
vn -0.0000 -0.0000 -1.0000
vt 0.999900 0.999900
vt 0.000100 0.999900
vt 0.000100 0.000100
vt 0.999900 0.000100
vt 1.000000 0.000000
vt 1.000000 1.000000
vt 0.000000 1.000000
vt -0.000000 0.000000
vt 1.000000 0.000000
vt 1.000000 1.000000
vt 0.000000 1.000000
vt 0.000000 0.000000
vt 1.000000 0.000000
vt 1.000000 1.000000
vt 0.000000 1.000000
vt 0.000000 0.000000
vt 0.999992 0.000499
vt 0.999990 1.000490
vt 0.000008 1.000488
vt 0.000889 0.000013
s 1
usemtl CraftingTableTop
f 1/1/1 5/2/1 7/3/1 3/4/1
usemtl CraftingTableFront
f 2/17/5 1/18/5 3/19/5 4/20/5
f 6/9/6 5/10/6 1/11/6 2/12/6
usemtl CraftingTableSide
f 4/5/2 3/6/2 7/7/2 8/8/2
f 8/9/3 7/10/3 5/11/3 6/12/3
usemtl CraftingTableBottom
f 6/13/4 2/14/4 4/15/4 8/16/4
