# Blender 4.2.0
# www.blender.org
mtllib stair.mtl
o Cube
v 0.500000 -0.500000 -0.500000
v 0.500000 -0.500000 0.500000
v -0.500000 0.500000 -0.500000
v -0.500000 -0.500000 -0.500000
v -0.500000 0.500000 0.500000
v -0.500000 -0.500000 0.500000
v 0.000000 0.500000 -0.500000
v 0.000000 0.500000 0.500000
v 0.000000 0.000000 0.500000
v 0.500000 0.000000 0.500000
v 0.500000 0.000000 -0.500000
v 0.000000 0.000000 -0.500000
vn -0.0000 1.0000 -0.0000
vn -0.0000 -0.0000 1.0000
vn -1.0000 -0.0000 -0.0000
vn -0.0000 -1.0000 -0.0000
vn 1.0000 -0.0000 -0.0000
vn -0.0000 -0.0000 -1.0000
vt 0.750000 0.500000
vt 0.875000 0.500000
vt 0.875000 0.750000
vt 0.750000 0.750000
vt 0.625000 1.000000
vt 0.375000 1.000000
vt 0.375000 0.750000
vt 0.500000 0.750000
vt 0.500000 0.875000
vt 0.625000 0.875000
vt 0.375000 0.000000
vt 0.625000 0.000000
vt 0.625000 0.250000
vt 0.375000 0.250000
vt 0.125000 0.500000
vt 0.375000 0.500000
vt 0.125000 0.750000
vt 0.500000 0.500000
vt 0.625000 0.375000
vt 0.500000 0.375000
vt 0.375000 0.187500
vt 0.500000 0.187500
vt 0.500000 0.062500
vt 0.375000 0.062500
vt 0.125000 0.562500
vt 0.125000 0.687500
vt 0.250000 0.687500
vt 0.250000 0.562500
s 0
usemtl Material
f 7/1/1 3/2/1 5/3/1 8/4/1
f 5/5/2 6/6/2 2/7/2 10/8/2 9/9/2 8/10/2
f 6/11/3 5/12/3 3/13/3 4/14/3
f 4/15/4 1/16/4 2/7/4 6/17/4
f 10/8/5 2/7/5 1/16/5 11/18/5
f 1/16/6 4/14/6 3/13/6 7/19/6 12/20/6 11/18/6
f 12/21/5 7/22/5 8/23/5 9/24/5
f 12/25/1 9/26/1 10/27/1 11/28/1
